<mxfile host="app.diagrams.net" modified="2023-07-12T06:22:09.162Z" agent="Mozilla/5.0 (X11; Linux x86_64; rv:102.0) Gecko/20100101 Firefox/102.0" etag="HN2GR9UFaKrTiuExzDpT" version="21.6.1" type="github">
  <diagram name="Page-1" id="zQvrsa_LNWWRSQABn7Fb">
    <mxGraphModel dx="4987" dy="878" grid="1" gridSize="10" guides="1" tooltips="1" connect="1" arrows="1" fold="1" page="1" pageScale="1" pageWidth="3300" pageHeight="4681" math="0" shadow="0">
      <root>
        <mxCell id="0" />
        <mxCell id="1" parent="0" />
        <mxCell id="_9pvVLFJd0tGa-DbQn_L-72" value="" style="rounded=0;whiteSpace=wrap;html=1;" vertex="1" parent="1">
          <mxGeometry x="90" y="15" width="2150" height="2005" as="geometry" />
        </mxCell>
        <mxCell id="_9pvVLFJd0tGa-DbQn_L-70" style="edgeStyle=orthogonalEdgeStyle;rounded=0;orthogonalLoop=1;jettySize=auto;html=1;exitX=0.5;exitY=1;exitDx=0;exitDy=0;" edge="1" parent="1" source="_9pvVLFJd0tGa-DbQn_L-1" target="_9pvVLFJd0tGa-DbQn_L-71">
          <mxGeometry relative="1" as="geometry">
            <mxPoint x="-120" y="960" as="targetPoint" />
          </mxGeometry>
        </mxCell>
        <mxCell id="_9pvVLFJd0tGa-DbQn_L-1" value="write_intraday_schedules_parallell.pl&lt;style type=&quot;text/css&quot;&gt;p, li { white-space: pre-wrap; }&lt;/style&gt;" style="rounded=1;whiteSpace=wrap;html=1;align=center;verticalAlign=middle;labelBackgroundColor=none;labelBorderColor=none;fillColor=#f8cecc;strokeColor=#b85450;" vertex="1" parent="1">
          <mxGeometry y="880" width="250" height="20" as="geometry" />
        </mxCell>
        <mxCell id="_9pvVLFJd0tGa-DbQn_L-6" style="edgeStyle=orthogonalEdgeStyle;rounded=0;orthogonalLoop=1;jettySize=auto;html=1;exitX=1;exitY=0.5;exitDx=0;exitDy=0;entryX=0;entryY=0.5;entryDx=0;entryDy=0;entryPerimeter=0;" edge="1" parent="1" source="_9pvVLFJd0tGa-DbQn_L-2" target="_9pvVLFJd0tGa-DbQn_L-5">
          <mxGeometry relative="1" as="geometry" />
        </mxCell>
        <mxCell id="_9pvVLFJd0tGa-DbQn_L-8" style="edgeStyle=orthogonalEdgeStyle;rounded=0;orthogonalLoop=1;jettySize=auto;html=1;exitX=0.5;exitY=1;exitDx=0;exitDy=0;entryX=0;entryY=0.5;entryDx=0;entryDy=0;entryPerimeter=0;" edge="1" parent="1" source="_9pvVLFJd0tGa-DbQn_L-2" target="_9pvVLFJd0tGa-DbQn_L-7">
          <mxGeometry relative="1" as="geometry" />
        </mxCell>
        <mxCell id="_9pvVLFJd0tGa-DbQn_L-51" style="edgeStyle=orthogonalEdgeStyle;rounded=0;orthogonalLoop=1;jettySize=auto;html=1;exitX=0;exitY=0.25;exitDx=0;exitDy=0;entryX=0.887;entryY=-0.169;entryDx=0;entryDy=0;entryPerimeter=0;" edge="1" parent="1" source="_9pvVLFJd0tGa-DbQn_L-2" target="_9pvVLFJd0tGa-DbQn_L-1">
          <mxGeometry relative="1" as="geometry" />
        </mxCell>
        <mxCell id="_9pvVLFJd0tGa-DbQn_L-2" value="Fahrplan_Util.pm&lt;style type=&quot;text/css&quot;&gt;p, li { white-space: pre-wrap; }&lt;/style&gt;" style="rounded=1;whiteSpace=wrap;html=1;fillColor=#dae8fc;strokeColor=#6c8ebf;" vertex="1" parent="1">
          <mxGeometry x="410" y="190" width="110" height="20" as="geometry" />
        </mxCell>
        <mxCell id="_9pvVLFJd0tGa-DbQn_L-5" value="db.param" style="shape=note;whiteSpace=wrap;html=1;backgroundOutline=1;darkOpacity=0.05;fillColor=#fff2cc;strokeColor=#d6b656;" vertex="1" parent="1">
          <mxGeometry x="590" y="140" width="80" height="100" as="geometry" />
        </mxCell>
        <mxCell id="_9pvVLFJd0tGa-DbQn_L-7" value="gdb_parameter" style="shape=cylinder3;whiteSpace=wrap;html=1;boundedLbl=1;backgroundOutline=1;size=15;fillColor=#b1ddf0;strokeColor=#10739e;" vertex="1" parent="1">
          <mxGeometry x="600" y="270" width="100" height="90" as="geometry" />
        </mxCell>
        <mxCell id="_9pvVLFJd0tGa-DbQn_L-52" style="edgeStyle=orthogonalEdgeStyle;rounded=0;orthogonalLoop=1;jettySize=auto;html=1;exitX=0;exitY=0.5;exitDx=0;exitDy=0;" edge="1" parent="1" source="_9pvVLFJd0tGa-DbQn_L-9">
          <mxGeometry relative="1" as="geometry">
            <mxPoint x="220" y="880" as="targetPoint" />
          </mxGeometry>
        </mxCell>
        <mxCell id="_9pvVLFJd0tGa-DbQn_L-9" value="FPMWorklist.pm&lt;style type=&quot;text/css&quot;&gt;p, li { white-space: pre-wrap; }&lt;/style&gt;" style="rounded=1;whiteSpace=wrap;html=1;fillColor=#dae8fc;strokeColor=#6c8ebf;" vertex="1" parent="1">
          <mxGeometry x="390" y="415" width="150" height="40" as="geometry" />
        </mxCell>
        <mxCell id="_9pvVLFJd0tGa-DbQn_L-60" style="edgeStyle=orthogonalEdgeStyle;rounded=0;orthogonalLoop=1;jettySize=auto;html=1;exitX=0;exitY=0.5;exitDx=0;exitDy=0;exitPerimeter=0;entryX=1;entryY=0.5;entryDx=0;entryDy=0;" edge="1" parent="1" source="_9pvVLFJd0tGa-DbQn_L-10" target="_9pvVLFJd0tGa-DbQn_L-9">
          <mxGeometry relative="1" as="geometry" />
        </mxCell>
        <mxCell id="_9pvVLFJd0tGa-DbQn_L-10" value="work_list" style="shape=cylinder3;whiteSpace=wrap;html=1;boundedLbl=1;backgroundOutline=1;size=15;fillColor=#b1ddf0;strokeColor=#10739e;" vertex="1" parent="1">
          <mxGeometry x="600" y="390" width="100" height="90" as="geometry" />
        </mxCell>
        <mxCell id="_9pvVLFJd0tGa-DbQn_L-53" style="edgeStyle=orthogonalEdgeStyle;rounded=0;orthogonalLoop=1;jettySize=auto;html=1;exitX=0;exitY=0.5;exitDx=0;exitDy=0;" edge="1" parent="1" source="_9pvVLFJd0tGa-DbQn_L-13">
          <mxGeometry relative="1" as="geometry">
            <mxPoint x="220" y="880" as="targetPoint" />
          </mxGeometry>
        </mxCell>
        <mxCell id="_9pvVLFJd0tGa-DbQn_L-13" value="&lt;div style=&quot;font-family: &amp;quot;JetBrains Mono&amp;quot;, monospace; font-size: 9.8pt;&quot;&gt;FPMLocking.pm&lt;/div&gt;" style="rounded=1;whiteSpace=wrap;html=1;fillColor=#dae8fc;strokeColor=#6c8ebf;fontColor=default;labelBackgroundColor=none;" vertex="1" parent="1">
          <mxGeometry x="380" y="525" width="155" height="40" as="geometry" />
        </mxCell>
        <mxCell id="_9pvVLFJd0tGa-DbQn_L-61" style="edgeStyle=orthogonalEdgeStyle;rounded=0;orthogonalLoop=1;jettySize=auto;html=1;exitX=0;exitY=0.5;exitDx=0;exitDy=0;exitPerimeter=0;entryX=1;entryY=0.5;entryDx=0;entryDy=0;" edge="1" parent="1" source="_9pvVLFJd0tGa-DbQn_L-14" target="_9pvVLFJd0tGa-DbQn_L-13">
          <mxGeometry relative="1" as="geometry" />
        </mxCell>
        <mxCell id="_9pvVLFJd0tGa-DbQn_L-14" value="locking" style="shape=cylinder3;whiteSpace=wrap;html=1;boundedLbl=1;backgroundOutline=1;size=15;fillColor=#b1ddf0;strokeColor=#10739e;" vertex="1" parent="1">
          <mxGeometry x="600" y="500" width="100" height="90" as="geometry" />
        </mxCell>
        <mxCell id="_9pvVLFJd0tGa-DbQn_L-54" style="edgeStyle=orthogonalEdgeStyle;rounded=0;orthogonalLoop=1;jettySize=auto;html=1;exitX=0;exitY=0.5;exitDx=0;exitDy=0;" edge="1" parent="1" source="_9pvVLFJd0tGa-DbQn_L-17">
          <mxGeometry relative="1" as="geometry">
            <mxPoint x="220" y="880" as="targetPoint" />
          </mxGeometry>
        </mxCell>
        <mxCell id="_9pvVLFJd0tGa-DbQn_L-17" value="Analyser.pm" style="rounded=1;whiteSpace=wrap;html=1;fillColor=#dae8fc;strokeColor=#6c8ebf;fontColor=default;labelBackgroundColor=default;" vertex="1" parent="1">
          <mxGeometry x="385" y="645" width="155" height="40" as="geometry" />
        </mxCell>
        <mxCell id="_9pvVLFJd0tGa-DbQn_L-62" style="edgeStyle=orthogonalEdgeStyle;rounded=0;orthogonalLoop=1;jettySize=auto;html=1;exitX=0;exitY=0.5;exitDx=0;exitDy=0;exitPerimeter=0;entryX=1;entryY=0.5;entryDx=0;entryDy=0;" edge="1" parent="1" source="_9pvVLFJd0tGa-DbQn_L-18" target="_9pvVLFJd0tGa-DbQn_L-17">
          <mxGeometry relative="1" as="geometry" />
        </mxCell>
        <mxCell id="_9pvVLFJd0tGa-DbQn_L-18" value="&lt;div style=&quot;font-family: &amp;quot;JetBrains Mono&amp;quot;, monospace; font-size: 9.8pt;&quot;&gt;gdb_log&lt;/div&gt;" style="shape=cylinder3;whiteSpace=wrap;html=1;boundedLbl=1;backgroundOutline=1;size=15;fillColor=#b1ddf0;strokeColor=#10739e;labelBackgroundColor=none;fontColor=default;" vertex="1" parent="1">
          <mxGeometry x="600" y="620" width="100" height="90" as="geometry" />
        </mxCell>
        <mxCell id="_9pvVLFJd0tGa-DbQn_L-55" style="edgeStyle=orthogonalEdgeStyle;rounded=0;orthogonalLoop=1;jettySize=auto;html=1;exitX=0;exitY=0.5;exitDx=0;exitDy=0;" edge="1" parent="1" source="_9pvVLFJd0tGa-DbQn_L-21">
          <mxGeometry relative="1" as="geometry">
            <mxPoint x="220" y="880" as="targetPoint" />
          </mxGeometry>
        </mxCell>
        <mxCell id="_9pvVLFJd0tGa-DbQn_L-21" value="&lt;div style=&quot;font-family: &amp;quot;JetBrains Mono&amp;quot;, monospace; font-size: 9.8pt;&quot;&gt;DBProcessTradeSelector&lt;/div&gt;.pm" style="rounded=1;whiteSpace=wrap;html=1;fillColor=#dae8fc;strokeColor=#6c8ebf;fontColor=default;labelBackgroundColor=none;" vertex="1" parent="1">
          <mxGeometry x="370" y="750" width="200" height="50" as="geometry" />
        </mxCell>
        <mxCell id="_9pvVLFJd0tGa-DbQn_L-56" style="edgeStyle=orthogonalEdgeStyle;rounded=0;orthogonalLoop=1;jettySize=auto;html=1;exitX=0;exitY=0.5;exitDx=0;exitDy=0;entryX=1;entryY=0.75;entryDx=0;entryDy=0;" edge="1" parent="1" source="_9pvVLFJd0tGa-DbQn_L-22" target="_9pvVLFJd0tGa-DbQn_L-1">
          <mxGeometry relative="1" as="geometry" />
        </mxCell>
        <mxCell id="_9pvVLFJd0tGa-DbQn_L-22" value="&lt;div style=&quot;font-family: &amp;quot;JetBrains Mono&amp;quot;, monospace; font-size: 9.8pt;&quot;&gt;DBAdapterZoneInfo.pm&lt;/div&gt;" style="rounded=1;whiteSpace=wrap;html=1;fillColor=#dae8fc;strokeColor=#6c8ebf;fontColor=default;labelBackgroundColor=none;" vertex="1" parent="1">
          <mxGeometry x="390" y="890" width="180" height="40" as="geometry" />
        </mxCell>
        <mxCell id="_9pvVLFJd0tGa-DbQn_L-57" style="edgeStyle=orthogonalEdgeStyle;rounded=0;orthogonalLoop=1;jettySize=auto;html=1;exitX=0;exitY=0.5;exitDx=0;exitDy=0;entryX=0.881;entryY=1.215;entryDx=0;entryDy=0;entryPerimeter=0;" edge="1" parent="1" source="_9pvVLFJd0tGa-DbQn_L-23" target="_9pvVLFJd0tGa-DbQn_L-1">
          <mxGeometry relative="1" as="geometry" />
        </mxCell>
        <mxCell id="_9pvVLFJd0tGa-DbQn_L-23" value="&lt;div style=&quot;font-family: &amp;quot;JetBrains Mono&amp;quot;, monospace; font-size: 9.8pt;&quot;&gt;ReaderTradesInterval.pm&lt;/div&gt;" style="rounded=1;whiteSpace=wrap;html=1;fillColor=#dae8fc;strokeColor=#6c8ebf;fontColor=default;labelBackgroundColor=none;" vertex="1" parent="1">
          <mxGeometry x="370" y="1140" width="187.5" height="40" as="geometry" />
        </mxCell>
        <mxCell id="_9pvVLFJd0tGa-DbQn_L-59" style="edgeStyle=orthogonalEdgeStyle;rounded=0;orthogonalLoop=1;jettySize=auto;html=1;exitX=0;exitY=0.5;exitDx=0;exitDy=0;entryX=0.893;entryY=1.062;entryDx=0;entryDy=0;entryPerimeter=0;" edge="1" parent="1" source="_9pvVLFJd0tGa-DbQn_L-24" target="_9pvVLFJd0tGa-DbQn_L-1">
          <mxGeometry relative="1" as="geometry">
            <mxPoint x="220" y="930" as="targetPoint" />
          </mxGeometry>
        </mxCell>
        <mxCell id="_9pvVLFJd0tGa-DbQn_L-24" value="FPMMasterdata.pm" style="rounded=1;whiteSpace=wrap;html=1;fillColor=#dae8fc;strokeColor=#6c8ebf;fontColor=default;labelBackgroundColor=default;" vertex="1" parent="1">
          <mxGeometry x="382.5" y="1420" width="155" height="40" as="geometry" />
        </mxCell>
        <mxCell id="_9pvVLFJd0tGa-DbQn_L-63" style="edgeStyle=orthogonalEdgeStyle;rounded=0;orthogonalLoop=1;jettySize=auto;html=1;exitX=0;exitY=0.5;exitDx=0;exitDy=0;exitPerimeter=0;" edge="1" parent="1" source="_9pvVLFJd0tGa-DbQn_L-25" target="_9pvVLFJd0tGa-DbQn_L-21">
          <mxGeometry relative="1" as="geometry" />
        </mxCell>
        <mxCell id="_9pvVLFJd0tGa-DbQn_L-25" value="&lt;div style=&quot;font-family: &amp;quot;JetBrains Mono&amp;quot;, monospace; font-size: 9.8pt;&quot;&gt;process_trade_selector&lt;/div&gt;" style="shape=cylinder3;whiteSpace=wrap;html=1;boundedLbl=1;backgroundOutline=1;size=15;fillColor=#b1ddf0;strokeColor=#10739e;labelBackgroundColor=none;fontColor=default;" vertex="1" parent="1">
          <mxGeometry x="605" y="730" width="225" height="90" as="geometry" />
        </mxCell>
        <mxCell id="_9pvVLFJd0tGa-DbQn_L-66" style="edgeStyle=orthogonalEdgeStyle;rounded=0;orthogonalLoop=1;jettySize=auto;html=1;exitX=0;exitY=0.5;exitDx=0;exitDy=0;exitPerimeter=0;entryX=1;entryY=0.5;entryDx=0;entryDy=0;" edge="1" parent="1" source="_9pvVLFJd0tGa-DbQn_L-26" target="_9pvVLFJd0tGa-DbQn_L-22">
          <mxGeometry relative="1" as="geometry" />
        </mxCell>
        <mxCell id="_9pvVLFJd0tGa-DbQn_L-26" value="&lt;div style=&quot;font-family: &amp;quot;JetBrains Mono&amp;quot;, monospace; font-size: 9.8pt;&quot;&gt;kunden_fpm_daten&lt;/div&gt;" style="shape=cylinder3;whiteSpace=wrap;html=1;boundedLbl=1;backgroundOutline=1;size=15;fillColor=#b1ddf0;strokeColor=#10739e;labelBackgroundColor=none;fontColor=default;" vertex="1" parent="1">
          <mxGeometry x="830" y="1010" width="147.5" height="75" as="geometry" />
        </mxCell>
        <mxCell id="_9pvVLFJd0tGa-DbQn_L-65" style="edgeStyle=orthogonalEdgeStyle;rounded=0;orthogonalLoop=1;jettySize=auto;html=1;exitX=0;exitY=0.5;exitDx=0;exitDy=0;exitPerimeter=0;" edge="1" parent="1" source="_9pvVLFJd0tGa-DbQn_L-29">
          <mxGeometry relative="1" as="geometry">
            <mxPoint x="570" y="910" as="targetPoint" />
          </mxGeometry>
        </mxCell>
        <mxCell id="_9pvVLFJd0tGa-DbQn_L-29" value="&lt;div style=&quot;font-family: &amp;quot;JetBrains Mono&amp;quot;, monospace; font-size: 9.8pt;&quot;&gt;kunden&lt;/div&gt;" style="shape=cylinder3;whiteSpace=wrap;html=1;boundedLbl=1;backgroundOutline=1;size=15;fillColor=#b1ddf0;strokeColor=#10739e;labelBackgroundColor=none;fontColor=default;" vertex="1" parent="1">
          <mxGeometry x="853.75" y="890" width="100" height="90" as="geometry" />
        </mxCell>
        <mxCell id="_9pvVLFJd0tGa-DbQn_L-64" style="edgeStyle=orthogonalEdgeStyle;rounded=0;orthogonalLoop=1;jettySize=auto;html=1;exitX=0;exitY=0.5;exitDx=0;exitDy=0;exitPerimeter=0;entryX=1;entryY=0.5;entryDx=0;entryDy=0;" edge="1" parent="1" source="_9pvVLFJd0tGa-DbQn_L-30" target="_9pvVLFJd0tGa-DbQn_L-22">
          <mxGeometry relative="1" as="geometry" />
        </mxCell>
        <mxCell id="_9pvVLFJd0tGa-DbQn_L-30" value="&lt;div style=&quot;font-family: &amp;quot;JetBrains Mono&amp;quot;, monospace; font-size: 9.8pt;&quot;&gt;zonen&lt;/div&gt;" style="shape=cylinder3;whiteSpace=wrap;html=1;boundedLbl=1;backgroundOutline=1;size=15;fillColor=#b1ddf0;strokeColor=#10739e;labelBackgroundColor=none;fontColor=default;" vertex="1" parent="1">
          <mxGeometry x="853.75" y="770" width="100" height="90" as="geometry" />
        </mxCell>
        <mxCell id="_9pvVLFJd0tGa-DbQn_L-67" style="edgeStyle=orthogonalEdgeStyle;rounded=0;orthogonalLoop=1;jettySize=auto;html=1;exitX=0;exitY=0.5;exitDx=0;exitDy=0;exitPerimeter=0;" edge="1" parent="1" source="_9pvVLFJd0tGa-DbQn_L-36" target="_9pvVLFJd0tGa-DbQn_L-23">
          <mxGeometry relative="1" as="geometry" />
        </mxCell>
        <mxCell id="_9pvVLFJd0tGa-DbQn_L-36" value="&lt;div style=&quot;font-family: &amp;quot;JetBrains Mono&amp;quot;, monospace; font-size: 9.8pt;&quot;&gt;st_intraday_trade_conf&lt;/div&gt;" style="shape=cylinder3;whiteSpace=wrap;html=1;boundedLbl=1;backgroundOutline=1;size=15;fillColor=#b1ddf0;strokeColor=#10739e;labelBackgroundColor=none;fontColor=default;" vertex="1" parent="1">
          <mxGeometry x="643.75" y="1110" width="236.25" height="100" as="geometry" />
        </mxCell>
        <mxCell id="_9pvVLFJd0tGa-DbQn_L-58" style="edgeStyle=orthogonalEdgeStyle;rounded=0;orthogonalLoop=1;jettySize=auto;html=1;exitX=0;exitY=0.75;exitDx=0;exitDy=0;" edge="1" parent="1" source="_9pvVLFJd0tGa-DbQn_L-40">
          <mxGeometry relative="1" as="geometry">
            <mxPoint x="220" y="900" as="targetPoint" />
          </mxGeometry>
        </mxCell>
        <mxCell id="_9pvVLFJd0tGa-DbQn_L-40" value="&lt;div style=&quot;font-family: &amp;quot;JetBrains Mono&amp;quot;, monospace; font-size: 9.8pt;&quot;&gt;ReaderFlowsInterval.pm&lt;/div&gt;" style="rounded=1;whiteSpace=wrap;html=1;fillColor=#dae8fc;strokeColor=#6c8ebf;fontColor=default;labelBackgroundColor=none;" vertex="1" parent="1">
          <mxGeometry x="360" y="1280" width="206.25" height="40" as="geometry" />
        </mxCell>
        <mxCell id="_9pvVLFJd0tGa-DbQn_L-68" style="edgeStyle=orthogonalEdgeStyle;rounded=0;orthogonalLoop=1;jettySize=auto;html=1;exitX=0;exitY=0.5;exitDx=0;exitDy=0;exitPerimeter=0;" edge="1" parent="1" source="_9pvVLFJd0tGa-DbQn_L-41" target="_9pvVLFJd0tGa-DbQn_L-40">
          <mxGeometry relative="1" as="geometry" />
        </mxCell>
        <mxCell id="_9pvVLFJd0tGa-DbQn_L-41" value="&lt;div style=&quot;font-family: &amp;quot;JetBrains Mono&amp;quot;, monospace; font-size: 9.8pt;&quot;&gt;st_intraday_flow_conf&lt;/div&gt;" style="shape=cylinder3;whiteSpace=wrap;html=1;boundedLbl=1;backgroundOutline=1;size=15;fillColor=#b1ddf0;strokeColor=#10739e;labelBackgroundColor=none;fontColor=default;" vertex="1" parent="1">
          <mxGeometry x="652.5" y="1250" width="236.25" height="100" as="geometry" />
        </mxCell>
        <mxCell id="_9pvVLFJd0tGa-DbQn_L-69" style="edgeStyle=orthogonalEdgeStyle;rounded=0;orthogonalLoop=1;jettySize=auto;html=1;exitX=0;exitY=0.5;exitDx=0;exitDy=0;exitPerimeter=0;entryX=1;entryY=0.5;entryDx=0;entryDy=0;" edge="1" parent="1" source="_9pvVLFJd0tGa-DbQn_L-44" target="_9pvVLFJd0tGa-DbQn_L-24">
          <mxGeometry relative="1" as="geometry" />
        </mxCell>
        <mxCell id="_9pvVLFJd0tGa-DbQn_L-44" value="&lt;div style=&quot;font-family: &amp;quot;JetBrains Mono&amp;quot;, monospace; font-size: 9.8pt;&quot;&gt;st_kunden_rolle&lt;/div&gt;" style="shape=cylinder3;whiteSpace=wrap;html=1;boundedLbl=1;backgroundOutline=1;size=15;fillColor=#b1ddf0;strokeColor=#10739e;labelBackgroundColor=none;fontColor=default;" vertex="1" parent="1">
          <mxGeometry x="640" y="1390" width="236.25" height="100" as="geometry" />
        </mxCell>
        <mxCell id="_9pvVLFJd0tGa-DbQn_L-48" style="edgeStyle=orthogonalEdgeStyle;rounded=0;orthogonalLoop=1;jettySize=auto;html=1;exitX=0.07;exitY=0.4;exitDx=0;exitDy=0;exitPerimeter=0;entryX=0;entryY=0;entryDx=80;entryDy=65;entryPerimeter=0;" edge="1" parent="1" source="_9pvVLFJd0tGa-DbQn_L-47" target="_9pvVLFJd0tGa-DbQn_L-5">
          <mxGeometry relative="1" as="geometry" />
        </mxCell>
        <mxCell id="_9pvVLFJd0tGa-DbQn_L-47" value="dữ liệu kết nối đb" style="ellipse;shape=cloud;whiteSpace=wrap;html=1;" vertex="1" parent="1">
          <mxGeometry x="888.75" y="70" width="151.25" height="100" as="geometry" />
        </mxCell>
        <mxCell id="_9pvVLFJd0tGa-DbQn_L-50" style="edgeStyle=orthogonalEdgeStyle;rounded=0;orthogonalLoop=1;jettySize=auto;html=1;exitX=0.07;exitY=0.4;exitDx=0;exitDy=0;exitPerimeter=0;entryX=1;entryY=0.5;entryDx=0;entryDy=0;entryPerimeter=0;" edge="1" parent="1" source="_9pvVLFJd0tGa-DbQn_L-49" target="_9pvVLFJd0tGa-DbQn_L-7">
          <mxGeometry relative="1" as="geometry" />
        </mxCell>
        <mxCell id="_9pvVLFJd0tGa-DbQn_L-49" value="parameter cung cấp cho script" style="ellipse;shape=cloud;whiteSpace=wrap;html=1;" vertex="1" parent="1">
          <mxGeometry x="900" y="210" width="250" height="130" as="geometry" />
        </mxCell>
        <mxCell id="_9pvVLFJd0tGa-DbQn_L-71" value="&lt;div&gt;updatate&amp;nbsp; &#39;Netting timestamp &#39; in table :&lt;/div&gt;&lt;div&gt;&lt;div style=&quot;font-family: &amp;quot;JetBrains Mono&amp;quot;, monospace; font-size: 9.8pt;&quot;&gt;st_intraday_flow_conf&lt;/div&gt;&lt;div style=&quot;font-family: &amp;quot;JetBrains Mono&amp;quot;, monospace; font-size: 9.8pt;&quot;&gt;&lt;div style=&quot;font-family: &amp;quot;JetBrains Mono&amp;quot;, monospace; font-size: 9.8pt;&quot;&gt;st_kunden_rolle&lt;/div&gt;&lt;/div&gt;&lt;/div&gt;" style="ellipse;whiteSpace=wrap;html=1;" vertex="1" parent="1">
          <mxGeometry x="-380" y="940" width="260" height="170" as="geometry" />
        </mxCell>
        <mxCell id="_9pvVLFJd0tGa-DbQn_L-74" value="Text" style="text;html=1;strokeColor=none;fillColor=none;align=center;verticalAlign=middle;whiteSpace=wrap;rounded=0;" vertex="1" parent="1">
          <mxGeometry x="920" y="1040" width="60" height="30" as="geometry" />
        </mxCell>
        <mxCell id="_9pvVLFJd0tGa-DbQn_L-75" value="INPUT" style="text;html=1;strokeColor=none;fillColor=none;align=center;verticalAlign=middle;whiteSpace=wrap;rounded=0;fontSize=35;fontColor=#12FF22;" vertex="1" parent="1">
          <mxGeometry x="190" y="50" width="280" height="70" as="geometry" />
        </mxCell>
      </root>
    </mxGraphModel>
  </diagram>
</mxfile>
